<svg id="visual" viewBox="0 0 900 600" width="900" height="600" xmlns="http://www.w3.org/2000/svg" xmlns:xlink="http://www.w3.org/1999/xlink" version="1.1"><path d="M0 173L21.5 184.5C43 196 86 219 128.8 230C171.7 241 214.3 240 257.2 226C300 212 343 185 385.8 180.2C428.7 175.3 471.3 192.7 514.2 197.7C557 202.7 600 195.3 642.8 189.2C685.7 183 728.3 178 771.2 179.5C814 181 857 189 878.5 193L900 197L900 0L878.5 0C857 0 814 0 771.2 0C728.3 0 685.7 0 642.8 0C600 0 557 0 514.2 0C471.3 0 428.7 0 385.8 0C343 0 300 0 257.2 0C214.3 0 171.7 0 128.8 0C86 0 43 0 21.5 0L0 0Z" fill="#69ec92"></path><path d="M0 126L21.5 128.3C43 130.7 86 135.3 128.8 147.5C171.7 159.7 214.3 179.3 257.2 176.8C300 174.3 343 149.7 385.8 147.5C428.7 145.3 471.3 165.7 514.2 166C557 166.3 600 146.7 642.8 142.7C685.7 138.7 728.3 150.3 771.2 153.5C814 156.7 857 151.3 878.5 148.7L900 146L900 0L878.5 0C857 0 814 0 771.2 0C728.3 0 685.7 0 642.8 0C600 0 557 0 514.2 0C471.3 0 428.7 0 385.8 0C343 0 300 0 257.2 0C214.3 0 171.7 0 128.8 0C86 0 43 0 21.5 0L0 0Z" fill="#52bc69"></path><path d="M0 122L21.5 127.5C43 133 86 144 128.8 139.8C171.7 135.7 214.3 116.3 257.2 107C300 97.7 343 98.3 385.8 108C428.7 117.7 471.3 136.3 514.2 137.5C557 138.7 600 122.3 642.8 122.3C685.7 122.3 728.3 138.7 771.2 137.5C814 136.3 857 117.7 878.5 108.3L900 99L900 0L878.5 0C857 0 814 0 771.2 0C728.3 0 685.7 0 642.8 0C600 0 557 0 514.2 0C471.3 0 428.7 0 385.8 0C343 0 300 0 257.2 0C214.3 0 171.7 0 128.8 0C86 0 43 0 21.5 0L0 0Z" fill="#3a8e44"></path><path d="M0 74L21.5 72.7C43 71.3 86 68.7 128.8 74C171.7 79.3 214.3 92.7 257.2 100.3C300 108 343 110 385.8 102.5C428.7 95 471.3 78 514.2 76C557 74 600 87 642.8 90C685.7 93 728.3 86 771.2 84.3C814 82.7 857 86.3 878.5 88.2L900 90L900 0L878.5 0C857 0 814 0 771.2 0C728.3 0 685.7 0 642.8 0C600 0 557 0 514.2 0C471.3 0 428.7 0 385.8 0C343 0 300 0 257.2 0C214.3 0 171.7 0 128.8 0C86 0 43 0 21.5 0L0 0Z" fill="#216222"></path><path d="M0 31L21.5 38.2C43 45.3 86 59.7 128.8 63C171.7 66.3 214.3 58.7 257.2 57.3C300 56 343 61 385.8 57.2C428.7 53.3 471.3 40.7 514.2 39.2C557 37.7 600 47.3 642.8 49.2C685.7 51 728.3 45 771.2 41.2C814 37.3 857 35.7 878.5 34.8L900 34L900 0L878.5 0C857 0 814 0 771.2 0C728.3 0 685.7 0 642.8 0C600 0 557 0 514.2 0C471.3 0 428.7 0 385.8 0C343 0 300 0 257.2 0C214.3 0 171.7 0 128.8 0C86 0 43 0 21.5 0L0 0Z" fill="#063a00"></path></svg>