<svg id="visual" viewBox="0 0 900 600" width="900" height="600" xmlns="http://www.w3.org/2000/svg" xmlns:xlink="http://www.w3.org/1999/xlink" version="1.1"><path d="M0 362L25 363.2C50 364.3 100 366.7 150 363.8C200 361 250 353 300 353.2C350 353.3 400 361.7 450 362.3C500 363 550 356 600 355.5C650 355 700 361 750 364C800 367 850 367 875 367L900 367L900 601L875 601C850 601 800 601 750 601C700 601 650 601 600 601C550 601 500 601 450 601C400 601 350 601 300 601C250 601 200 601 150 601C100 601 50 601 25 601L0 601Z" fill="#69ec92"></path><path d="M0 431L25 428.3C50 425.7 100 420.3 150 421.7C200 423 250 431 300 428.3C350 425.7 400 412.3 450 411C500 409.7 550 420.3 600 421C650 421.7 700 412.3 750 408.3C800 404.3 850 405.7 875 406.3L900 407L900 601L875 601C850 601 800 601 750 601C700 601 650 601 600 601C550 601 500 601 450 601C400 601 350 601 300 601C250 601 200 601 150 601C100 601 50 601 25 601L0 601Z" fill="#52bc69"></path><path d="M0 450L25 447.8C50 445.7 100 441.3 150 442.2C200 443 250 449 300 456C350 463 400 471 450 475.5C500 480 550 481 600 477.3C650 473.7 700 465.3 750 464.5C800 463.7 850 470.3 875 473.7L900 477L900 601L875 601C850 601 800 601 750 601C700 601 650 601 600 601C550 601 500 601 450 601C400 601 350 601 300 601C250 601 200 601 150 601C100 601 50 601 25 601L0 601Z" fill="#3a8e44"></path><path d="M0 487L25 487.2C50 487.3 100 487.7 150 491.3C200 495 250 502 300 502.3C350 502.7 400 496.3 450 495.2C500 494 550 498 600 503.3C650 508.7 700 515.3 750 516.5C800 517.7 850 513.3 875 511.2L900 509L900 601L875 601C850 601 800 601 750 601C700 601 650 601 600 601C550 601 500 601 450 601C400 601 350 601 300 601C250 601 200 601 150 601C100 601 50 601 25 601L0 601Z" fill="#216222"></path><path d="M0 541L25 545.2C50 549.3 100 557.7 150 559.8C200 562 250 558 300 553.5C350 549 400 544 450 540.8C500 537.7 550 536.3 600 538.5C650 540.7 700 546.3 750 546C800 545.7 850 539.3 875 536.2L900 533L900 601L875 601C850 601 800 601 750 601C700 601 650 601 600 601C550 601 500 601 450 601C400 601 350 601 300 601C250 601 200 601 150 601C100 601 50 601 25 601L0 601Z" fill="#063a00"></path></svg>